<svg width="96" height="96" viewBox="0 0 96 96" fill="none" xmlns="http://www.w3.org/2000/svg">
  <rect width="96" height="96" rx="20" fill="#EEF2FF"/>
  <path d="M20 62L36 38L54 52L76 26" stroke="#6366F1" stroke-width="6" stroke-linecap="round" stroke-linejoin="round"/>
  <circle cx="36" cy="38" r="4" fill="#6366F1"/>
  <circle cx="54" cy="52" r="4" fill="#6366F1"/>
  <circle cx="76" cy="26" r="4" fill="#6366F1"/>
  <circle cx="20" cy="62" r="4" fill="#6366F1"/>
</svg>
<svg xmlns="http://www.w3.org/2000/svg" width="96" height="96" viewBox="0 0 96 96" fill="none">
  <rect x="6" y="6" width="84" height="84" rx="18" fill="#F8FAFC" stroke="#E2E8F0" stroke-width="3"/>
  <path d="M30 62c6-6 12-14 18-14s12 8 18 14" stroke="#3B82F6" stroke-width="4" stroke-linecap="round" stroke-linejoin="round"/>
  <path d="M34 36h28" stroke="#94A3B8" stroke-width="3" stroke-linecap="round"/>
  <circle cx="48" cy="48" r="6" fill="#3B82F6" opacity="0.2"/>
</svg>
<svg xmlns="http://www.w3.org/2000/svg" width="120" height="120" viewBox="0 0 120 120" fill="none">
  <rect x="8" y="8" width="104" height="104" rx="20" fill="#EEF2FF" stroke="#CBD5E1" stroke-width="4"/>
  <path d="M36 74L54 50L68 66L84 44" stroke="#4F46E5" stroke-width="6" stroke-linecap="round" stroke-linejoin="round"/>
  <circle cx="54" cy="50" r="5" fill="#4F46E5"/>
  <circle cx="68" cy="66" r="5" fill="#4F46E5"/>
  <circle cx="84" cy="44" r="5" fill="#4F46E5"/>
</svg>

